<?xml version="1.0" encoding="utf-8"?>
<!-- Generator: Adobe Illustrator 23.0.3, SVG Export Plug-In . SVG Version: 6.00 Build 0)  -->
<svg version="1.1" id="Слой_1" xmlns="http://www.w3.org/2000/svg" xmlns:xlink="http://www.w3.org/1999/xlink" x="0px" y="0px"
	 viewBox="0 0 67.16 37.72" style="enable-background:new 0 0 67.16 37.72;" xml:space="preserve">
<style type="text/css">
	.st0{fill-rule:evenodd;clip-rule:evenodd;fill:#FFBC3B;}
	.st1{fill-rule:evenodd;clip-rule:evenodd;fill:#FFFFFF;}
</style>
<g>
	<path class="st0" d="M0,0h28.8c10.37,0,18.86,8.49,18.86,18.86v0c0,2.69-0.57,5.26-1.6,7.58H32.58v-0.37
		c2.29-1.59,3.8-4.24,3.8-7.21c0-4.81-3.97-8.78-8.78-8.78H14.81h-2.93H0V0L0,0z M18.3,37.72V27.64h-6.42V11.4H0v26.33H18.3z"/>
	<path class="st1" d="M35.61,0h12.7c10.37,0,18.86,8.49,18.86,18.86v0c0,10.37-8.49,18.86-18.86,18.86H19.5V14.4h11.88v13.25H47.1
		c4.81,0,8.78-3.97,8.78-8.78c0-4.81-3.97-8.78-8.78-8.78h-0.27C44.52,5.38,40.47,1.77,35.61,0z"/>
</g>
</svg>
