<svg xmlns="http://www.w3.org/2000/svg" viewBox="0 0 215 39" width="215" height="39">
	<style>
		tspan { white-space:pre }
		.shp0 { fill: #ffbc3b } 
		.shp1 { fill: #ffffff;stroke: #1a1a37;paint-order:stroke fill markers;stroke-width: 6 } 
	</style>
	<g id="Layer">
		<path id="Layer" class="shp0" d="M85.18,1.11c2.91,0 5.08,0.77 6.5,2.32c1.42,1.54 2.13,3.81 2.13,6.79v4.79c0,2.98 -0.71,5.25 -2.13,6.79c-1.42,1.54 -3.59,2.32 -6.5,2.32h-2.74v13.84h-5.79v-36.85zM82.45,6.37v12.47h2.74c0.91,0 1.61,-0.25 2.11,-0.74c0.49,-0.49 0.74,-1.4 0.74,-2.74v-5.51c0,-1.33 -0.25,-2.25 -0.74,-2.74c-0.49,-0.49 -1.19,-0.74 -2.11,-0.74z" />
		<path id="Layer" class="shp0" d="M101.18,9.58c0,-1.34 0.28,-2.28 0.82,-2.82c0.54,-0.55 1.27,-0.82 2.18,-0.82c0.91,0 1.64,0.28 2.18,0.82c0.55,0.55 0.82,1.49 0.82,2.82v19.9c0,1.34 -0.28,2.28 -0.82,2.82c-0.54,0.55 -1.27,0.82 -2.18,0.82c-0.91,0 -1.64,-0.28 -2.18,-0.82c-0.55,-0.55 -0.82,-1.49 -0.82,-2.82zM95.39,29.11c0,2.98 0.75,5.28 2.26,6.87c1.51,1.59 3.69,2.39 6.53,2.39c2.85,0 5.02,-0.79 6.53,-2.39c1.51,-1.6 2.26,-3.89 2.26,-6.87v-19.16c0,-2.98 -0.75,-5.27 -2.26,-6.87c-1.51,-1.59 -3.69,-2.39 -6.53,-2.39c-2.85,0 -5.02,0.79 -6.53,2.39c-1.51,1.6 -2.26,3.89 -2.26,6.87z" />
		<path id="Layer" class="shp0" d="M115.55,37.95h15.31v-5.26h-9.53v-31.58h-5.78z" />
		<path id="Layer" class="shp0" d="M132.49,37.95h5.79v-36.84h-5.79z" />
		<path id="Layer" class="shp0" d="M150.12,17.48h8.1v11.68c0,2.98 -0.73,5.26 -2.18,6.84c-1.46,1.58 -3.61,2.37 -6.45,2.37c-2.84,0 -4.99,-0.8 -6.45,-2.39c-1.46,-1.6 -2.18,-3.89 -2.18,-6.87v-19.16c0,-2.98 0.73,-5.27 2.18,-6.87c1.46,-1.6 3.6,-2.39 6.45,-2.39c2.84,0 4.99,0.8 6.45,2.39c1.46,1.6 2.18,3.89 2.18,6.87v3.58h-5.47v-3.95c0,-1.33 -0.27,-2.27 -0.82,-2.82c-0.54,-0.54 -1.27,-0.82 -2.18,-0.82c-0.91,0 -1.64,0.27 -2.18,0.82c-0.54,0.54 -0.82,1.49 -0.82,2.82v19.93c0,1.33 0.27,2.27 0.82,2.8c0.54,0.53 1.27,0.79 2.18,0.79c0.91,0 1.64,-0.26 2.18,-0.79c0.54,-0.53 0.82,-1.46 0.82,-2.79v-6.79h-2.63z" />
		<path id="Layer" class="shp0" d="M160.8,37.95h15.32v-5.26h-9.53v-31.58h-5.79z" />
		<path id="Layer" class="shp0" d="M183.33,9.58c0,-1.34 0.28,-2.28 0.82,-2.82c0.54,-0.55 1.27,-0.82 2.18,-0.82c0.91,0 1.64,0.28 2.18,0.82c0.55,0.55 0.82,1.49 0.82,2.82v19.9c0,1.34 -0.28,2.28 -0.82,2.82c-0.54,0.55 -1.27,0.82 -2.18,0.82c-0.91,0 -1.64,-0.28 -2.18,-0.82c-0.55,-0.55 -0.82,-1.49 -0.82,-2.82zM177.54,29.11c0,2.98 0.75,5.27 2.26,6.87c1.51,1.59 3.69,2.39 6.53,2.39c2.85,0 5.02,-0.79 6.53,-2.39c1.51,-1.6 2.26,-3.89 2.26,-6.87v-19.16c0,-2.98 -0.75,-5.27 -2.26,-6.87c-1.51,-1.59 -3.69,-2.39 -6.53,-2.39c-2.85,0 -5.02,0.79 -6.53,2.39c-1.51,1.6 -2.26,3.89 -2.26,6.87z" />
		<path id="Layer" class="shp0" d="M196.9,6.37h6.06v31.58h5.78v-31.58h6.06v-5.26h-17.9z" />
		<g id="Layer">
			<path id="Layer" class="shp0" d="M0,0h28.8c10.37,0 18.86,8.49 18.86,18.86c0,2.69 -0.57,5.26 -1.6,7.58h-13.48v-0.37c2.29,-1.59 3.8,-4.24 3.8,-7.21c0,-4.81 -3.97,-8.78 -8.78,-8.78h-27.6zM18.3,37.73h-18.3v-26.33h11.88v16.24h6.42z" />
			<path id="Layer" class="shp1" d="M36.11,0h12.7c10.37,0 18.86,8.49 18.86,18.86v0c0,10.37 -8.49,18.86 -18.86,18.86h-28.81v-23.32h11.88v13.25h15.72c4.81,0 8.78,-3.97 8.78,-8.78c0,-4.81 -3.97,-8.78 -8.78,-8.78h-0.27c-2.31,-4.71 -6.36,-8.32 -11.22,-10.09z" />
		</g>
	</g>
</svg>