<?xml version="1.0" encoding="utf-8"?>
<!-- Generator: Adobe Illustrator 23.0.3, SVG Export Plug-In . SVG Version: 6.00 Build 0)  -->
<svg version="1.1" id="Слой_1" xmlns="http://www.w3.org/2000/svg" xmlns:xlink="http://www.w3.org/1999/xlink" x="0px" y="0px"
	 viewBox="0 0 214.8 38.37" style="enable-background:new 0 0 214.8 38.37;" xml:space="preserve">
<style type="text/css">
	.st0{fill-rule:evenodd;clip-rule:evenodd;fill:#FFBC3B;}
	.st1{fill-rule:evenodd;clip-rule:evenodd;fill:#FFFFFF;}
</style>
<g>
	<path class="st0" d="M85.18,1.11c2.91,0,5.08,0.77,6.5,2.32c1.42,1.54,2.13,3.81,2.13,6.79v4.79c0,2.98-0.71,5.25-2.13,6.79
		c-1.42,1.54-3.59,2.32-6.5,2.32h-2.74v13.84h-5.79V1.11H85.18L85.18,1.11z M82.45,6.37v12.47h2.74c0.91,0,1.61-0.25,2.11-0.74
		c0.49-0.49,0.74-1.4,0.74-2.74V9.85c0-1.33-0.25-2.25-0.74-2.74c-0.49-0.49-1.19-0.74-2.11-0.74H82.45z"/>
	<path class="st0" d="M101.18,29.48c0,1.33,0.27,2.27,0.82,2.82c0.54,0.54,1.27,0.82,2.18,0.82s1.64-0.27,2.18-0.82
		c0.54-0.54,0.82-1.48,0.82-2.82V9.58c0-1.33-0.27-2.27-0.82-2.82c-0.54-0.54-1.27-0.82-2.18-0.82s-1.64,0.27-2.18,0.82
		c-0.54,0.54-0.82,1.48-0.82,2.82V29.48L101.18,29.48z M95.39,9.95c0-2.98,0.75-5.27,2.26-6.87c1.51-1.6,3.68-2.39,6.53-2.39
		c2.84,0,5.02,0.8,6.53,2.39c1.51,1.6,2.26,3.89,2.26,6.87v19.16c0,2.98-0.75,5.27-2.26,6.87s-3.68,2.39-6.53,2.39
		c-2.84,0-5.02-0.8-6.53-2.39s-2.26-3.89-2.26-6.87V9.95z"/>
	<polygon class="st0" points="115.55,1.11 121.33,1.11 121.33,32.69 130.86,32.69 130.86,37.95 115.55,37.95 	"/>
	<rect x="132.49" y="1.11" class="st0" width="5.79" height="36.84"/>
	<path class="st0" d="M150.12,17.48h8.1v11.68c0,2.98-0.73,5.26-2.18,6.84c-1.46,1.58-3.61,2.37-6.45,2.37
		c-2.84,0-4.99-0.8-6.45-2.39c-1.46-1.6-2.18-3.89-2.18-6.87V9.95c0-2.98,0.73-5.27,2.18-6.87c1.46-1.6,3.6-2.39,6.45-2.39
		c2.84,0,4.99,0.8,6.45,2.39c1.46,1.6,2.18,3.89,2.18,6.87v3.58h-5.47V9.58c0-1.33-0.27-2.27-0.82-2.82
		c-0.54-0.54-1.27-0.82-2.18-0.82c-0.91,0-1.64,0.27-2.18,0.82c-0.54,0.54-0.82,1.49-0.82,2.82v19.93c0,1.33,0.27,2.27,0.82,2.8
		c0.54,0.53,1.27,0.79,2.18,0.79c0.91,0,1.64-0.26,2.18-0.79c0.54-0.53,0.82-1.46,0.82-2.79v-6.79h-2.63V17.48z"/>
	<polygon class="st0" points="160.8,1.11 166.59,1.11 166.59,32.69 176.12,32.69 176.12,37.95 160.8,37.95 	"/>
	<path class="st0" d="M183.33,29.48c0,1.33,0.27,2.27,0.82,2.82c0.54,0.54,1.27,0.82,2.18,0.82s1.64-0.27,2.18-0.82
		c0.54-0.54,0.82-1.48,0.82-2.82V9.58c0-1.33-0.27-2.27-0.82-2.82c-0.54-0.54-1.27-0.82-2.18-0.82s-1.64,0.27-2.18,0.82
		c-0.54,0.54-0.82,1.48-0.82,2.82V29.48L183.33,29.48z M177.54,9.95c0-2.98,0.75-5.27,2.26-6.87c1.51-1.6,3.68-2.39,6.53-2.39
		c2.84,0,5.02,0.8,6.53,2.39c1.51,1.6,2.26,3.89,2.26,6.87v19.16c0,2.98-0.75,5.27-2.26,6.87c-1.51,1.6-3.68,2.39-6.53,2.39
		c-2.84,0-5.02-0.8-6.53-2.39c-1.51-1.6-2.26-3.89-2.26-6.87V9.95z"/>
	<polygon class="st0" points="196.9,1.11 214.8,1.11 214.8,6.37 208.74,6.37 208.74,37.95 202.96,37.95 202.96,6.37 196.9,6.37 	"/>
	<g>
		<path class="st0" d="M0,0h28.8c10.37,0,18.86,8.49,18.86,18.86v0c0,2.69-0.57,5.26-1.6,7.58H32.58v-0.37
			c2.29-1.59,3.8-4.24,3.8-7.21c0-4.81-3.97-8.78-8.78-8.78H14.81h-2.93H0V0L0,0z M18.3,37.72V27.64h-6.42V11.4H0v26.33H18.3z"/>
		<path class="st1" d="M35.61,0h12.7c10.37,0,18.86,8.49,18.86,18.86v0c0,10.37-8.49,18.86-18.86,18.86H19.5V14.4h11.88v13.25H47.1
			c4.81,0,8.78-3.97,8.78-8.78c0-4.81-3.97-8.78-8.78-8.78h-0.27C44.52,5.38,40.47,1.77,35.61,0z"/>
	</g>
</g>
</svg>
